<svg width="250" height="249" viewBox="0 0 250 249" fill="none" xmlns="http://www.w3.org/2000/svg">
<path d="M99.8041 1.87471C61.5041 10.1747 30.1041 34.1747 13.1041 68.0747C3.10413 88.1747 0.00412681 101.375 0.00412681 124.475C-0.0958732 142.975 1.60413 152.975 7.00413 167.475C16.6041 193.075 35.7041 217.075 56.8041 229.875L62.3041 233.175L66.4041 231.575C69.1041 230.475 71.7041 230.175 74.1041 230.575C80.4041 231.675 81.3041 232.575 81.3041 237.575C81.3041 241.775 81.5041 242.175 84.9041 243.575C86.8041 244.375 90.1041 245.175 92.1041 245.275L95.8041 245.475L97.3041 239.175C99.0041 231.875 101.904 228.275 107.004 227.375C111.604 226.475 112.004 227.275 112.804 237.875C113.104 242.575 113.604 247.075 113.904 247.875C114.504 249.775 144.204 248.875 153.804 246.575C202.004 235.075 239.804 194.875 248.404 145.975C250.104 136.475 250.104 112.775 248.404 102.975C242.704 70.1747 221.504 38.0747 193.304 19.7747C180.204 11.2747 165.404 5.1747 149.804 1.87471C137.704 -0.62529 111.404 -0.62529 99.8041 1.87471ZM137.804 14.3747C163.904 17.9747 183.304 27.2747 201.904 45.1747C219.404 62.0747 230.804 83.9747 234.704 108.675C236.704 121.275 236.704 128.375 234.804 140.575C229.904 170.775 215.204 195.175 190.304 214.175C182.104 220.475 164.204 229.175 154.004 231.975C145.304 234.275 126.704 236.675 125.704 235.675C125.304 235.375 125.604 226.575 126.304 216.275C128.104 187.675 128.304 190.575 124.504 190.375C120.104 190.175 119.204 189.075 118.204 183.275C117.104 176.375 119.404 171.975 125.004 169.975C128.604 168.775 129.404 167.975 129.904 165.375C131.204 158.575 130.304 156.875 124.304 154.975C121.304 153.975 117.404 152.475 115.604 151.575C112.204 149.775 106.904 144.075 107.704 143.175C108.004 142.875 111.304 144.075 115.004 145.775C124.004 149.875 131.504 150.975 143.304 149.875C153.404 148.875 160.904 149.675 173.904 152.975C186.204 156.075 189.704 156.375 197.304 154.475C207.704 151.975 209.704 147.575 205.004 137.775C202.504 132.475 194.204 125.175 167.504 105.075C159.104 98.7747 152.304 93.0747 152.304 92.4747C152.304 91.7747 153.204 90.4747 154.404 89.3747C155.604 88.3747 157.604 85.5747 159.004 83.1747C161.404 79.1747 161.504 78.1747 160.904 71.1747C160.604 66.9747 159.904 63.1747 159.404 62.6747C156.704 59.9747 143.704 69.0747 139.804 76.3747C137.304 80.9747 135.004 80.9747 131.804 76.2747C129.804 73.1747 129.304 71.2747 129.304 66.1747C129.304 58.7747 127.604 54.1747 123.804 51.1747C120.304 48.3747 117.304 48.3747 113.904 51.0747C110.304 53.8747 110.504 57.9747 114.304 62.3747C122.504 71.5747 122.104 84.0747 114.004 76.1747C112.204 74.3747 109.204 70.3747 107.304 67.2747C99.5041 53.9747 94.0041 49.5747 88.3041 51.9747C85.6041 53.0747 83.3041 56.5747 83.3041 59.5747C83.3041 63.1747 86.8041 66.9747 92.0041 69.0747C97.4041 71.2747 101.304 74.9747 101.304 77.8747C101.304 78.7747 99.7041 80.7747 97.7041 82.3747C95.7041 83.9747 93.1041 87.3747 91.9041 90.0747L89.6041 94.8747L85.4041 90.5747C79.0041 84.0747 73.8041 81.8747 65.0041 81.8747C53.1041 81.8747 49.4041 84.3747 55.1041 88.6747C56.9041 89.9747 59.9041 94.7747 63.1041 101.375C68.6041 112.575 72.1041 116.175 79.2041 117.575C81.0041 117.975 82.7041 118.775 82.9041 119.375C83.2041 120.075 80.4041 132.275 76.7041 146.475C68.2041 179.875 68.5041 177.775 71.6041 178.475C76.0041 179.575 78.2041 183.875 80.2041 195.275C80.9041 198.875 80.7041 200.375 79.7041 201.475C78.1041 202.975 69.5041 204.375 64.3041 203.775C61.0041 203.475 60.7041 203.675 59.5041 207.675C58.7041 210.075 57.5041 211.975 56.8041 211.975C55.5041 211.975 43.8041 200.975 39.1041 195.275C22.3041 175.175 12.1041 144.975 13.7041 120.475C15.8041 90.5747 25.6041 68.0747 45.7041 47.1747C62.6041 29.5747 85.9041 17.7747 110.304 14.5747C123.804 12.7747 125.804 12.7747 137.804 14.3747ZM107.704 160.575C108.804 163.375 108.304 169.975 106.904 172.775C104.204 177.875 99.8041 181.175 94.8041 181.675C90.4041 182.275 90.1041 182.075 85.8041 177.575C83.3041 175.075 81.3041 172.075 81.3041 171.075C81.3041 168.175 86.2041 162.975 90.8041 160.875C96.0041 158.475 106.804 158.275 107.704 160.575ZM113.304 197.975C115.004 201.275 116.604 205.975 116.904 208.375C117.504 212.175 117.204 212.975 114.704 215.375C110.804 219.075 107.804 220.475 101.504 221.875C92.8041 223.675 89.4041 223.375 88.2041 220.575C86.7041 217.275 87.9041 209.875 90.6041 205.775C92.6041 202.875 107.404 191.975 109.504 191.975C109.904 191.975 111.604 194.675 113.304 197.975Z" fill="url(#paint0_linear_1:42)"/>
<defs>
<linearGradient id="paint0_linear_1:42" x1="124.84" y1="248.905" x2="124.84" y2="-0.000289917" gradientUnits="userSpaceOnUse">
<stop stop-color="#F0D33C"/>
<stop offset="1" stop-color="#EFAC29"/>
</linearGradient>
</defs>
</svg>
